<svg xmlns="http://www.w3.org/2000/svg" viewBox="0 0 40 40" width="40" height="40">
  <defs>
    <linearGradient id="glow-linkedin" x1="0%" y1="0%" x2="100%" y2="100%">
      <stop offset="0%" stop-color="#0077b5" />
      <stop offset="100%" stop-color="#0969da" />
    </linearGradient>
  </defs>
  <!-- Background Circle -->
  <circle cx="20" cy="20" r="19" fill="#0d1117" stroke="url(#glow-linkedin)" stroke-width="1.5"/>
  <!-- LinkedIn Icon -->
  <path d="M12 11h3v10h-3v-10zm1.5-2a1.5 1.5 0 1 1 0-3 1.5 1.5 0 0 1 0 3zm4.5 2h2.9v1.4h.04c.4-.7 1.3-1.6 2.8-1.6 3 0 3.6 2 3.6 4.6v5.6h-3v-4.7c0-1.1-.02-2.6-1.6-2.6-1.6 0-1.8 1.2-1.8 2.5v4.8h-3v-10z" fill="#0077b5"/>
</svg>
