<svg xmlns="http://www.w3.org/2000/svg" viewBox="0 0 40 40" width="40" height="40">
  <defs>
    <linearGradient id="glow-portfolio" x1="0%" y1="0%" x2="100%" y2="100%">
      <stop offset="0%" stop-color="#2ea043" />
      <stop offset="100%" stop-color="#0969da" />
    </linearGradient>
  </defs>
  <!-- Background Circle -->
  <circle cx="20" cy="20" r="19" fill="#0d1117" stroke="url(#glow-portfolio)" stroke-width="1.5"/>
  <!-- Globe/Web Icon -->
  <path d="M20 10a10 10 0 1 1 0 20 10 10 0 0 1 0-20zm0 1.5c-1.8 0-3.8 2.2-4.3 6h8.6c-.5-3.8-2.5-6-4.3-6zm-4.4 7.5h8.8c.1.7.1 1.2.1 2s0 1.3-.1 2h-8.8c-.1-.7-.1-1.2-.1-2s0-1.3.1-2zm-.1-1.5H12c.5-2.2 1.8-4.2 3.5-5.3-.4 1.4-.6 3.4-.6 5.3zm9 0c0-1.9-.2-3.9-.6-5.3 1.7 1.1 3 3.1 3.5 5.3h-2.9zm.6 7.5c.4 1.4.6 3.4.6 5.3-1.7-1.1-3-3.1-3.5-5.3h2.9zm-9 0H12c.5 2.2 1.8 4.2 3.5 5.3-.4-1.4-.6-3.4-.6-5.3zm3.5 1.5c.5 3.8 2.5 6 4.3 6s3.8-2.2 4.3-6h-8.6z" fill="url(#glow-portfolio)"/>
</svg>
